<svg width="176" height="45" viewBox="0 0 176 45" fill="none" xmlns="http://www.w3.org/2000/svg">
<path fill-rule="evenodd" clip-rule="evenodd" d="M173.946 28.1719C173.295 28.6948 172.548 29.0478 171.681 29.0478C169.883 29.0478 169.103 28.1801 169.103 26.433V20.8663H174.789C174.904 20.2469 174.988 19.6357 174.988 19.0015C174.988 18.4197 174.908 17.8385 174.793 17.2685H169.103V13.0877C168.369 12.9768 167.628 12.9217 166.886 12.923C166.096 12.923 165.312 12.9819 164.532 13.0907V17.2691H161.745C161.657 17.8537 161.61 18.4438 161.606 19.035C161.606 19.6468 161.655 20.2604 161.744 20.8669H164.532V27.6613C164.532 31.4261 167.281 32.8115 170.797 32.8115C172.685 32.8115 174.305 32.2961 175.787 31.1814C175.609 30.119 174.866 28.7819 173.946 28.1725V28.1719ZM159.477 32.3461V16.972C158.708 16.8626 157.933 16.8066 157.157 16.8044C156.394 16.8044 155.626 16.8573 154.871 16.9703V32.345C155.627 32.4538 156.394 32.512 157.157 32.512C157.934 32.512 158.71 32.4603 159.477 32.3461ZM157.191 14.529C158.731 14.529 160.022 13.2701 160.022 11.7683C160.022 10.2623 158.726 9.04053 157.191 9.04053C155.639 9.04053 154.362 10.2465 154.362 11.7683C154.362 13.2695 155.652 14.529 157.191 14.529ZM143.177 29.1143C142.324 29.1143 141.509 28.9837 140.695 28.7395L140.531 28.6907V20.8339L140.683 20.7798C141.482 20.4974 142.33 20.368 143.177 20.368C145.88 20.368 147.524 22.1128 147.524 24.7076C147.524 27.3589 145.951 29.1137 143.177 29.1137V29.1143ZM140.531 10.9265C139.765 10.7947 138.989 10.7659 138.211 10.7659C137.445 10.7659 136.68 10.7965 135.925 10.9265V31.4061C137.976 32.425 140.562 32.8438 142.837 32.8438C148.235 32.8438 152.164 30.0037 152.164 24.5088C152.164 19.3956 148.576 16.572 143.517 16.572C142.608 16.572 141.7 16.6649 140.838 16.9579L140.532 17.0614V10.9259L140.531 10.9265ZM124.707 29.1807C121.998 29.1807 120.701 27.1159 120.701 24.6747C120.701 22.2193 121.981 20.1698 124.707 20.1698C127.437 20.1698 128.68 22.2275 128.68 24.6753C128.68 27.1189 127.411 29.1813 124.707 29.1813V29.1807ZM124.674 32.8444C129.656 32.8444 133.32 29.6178 133.32 24.6753C133.32 19.6945 129.789 16.4726 124.741 16.4726C119.737 16.4726 116.095 19.7198 116.095 24.6753C116.095 29.6972 119.598 32.8444 124.674 32.8444ZM115.564 17.2156C114.618 17.082 113.563 17.0367 112.631 17.0367C111.855 17.0367 111.07 17.0397 110.296 17.1214C109.031 19.4492 107.126 21.5263 104.867 22.9728L104.51 23.2011V11.0006C103.73 10.8902 102.943 10.834 102.156 10.8324C101.402 10.8322 100.649 10.8876 99.9031 10.9983V32.3432C100.686 32.4497 101.465 32.5126 102.258 32.5126C103.012 32.5148 103.764 32.4597 104.51 32.3479V27.8077L104.655 27.7513C105.007 27.609 105.351 27.4465 105.685 27.2648L105.846 27.1783L110.603 32.4567C111.39 32.5362 112.287 32.5456 113.074 32.5456C113.921 32.5456 115.419 32.4832 116.367 32.2573L109.484 24.6911L109.654 24.5417C112.015 22.4511 113.967 19.9027 115.564 17.2156ZM88.6509 29.1807C85.9414 29.1807 84.6449 27.1159 84.6449 24.6747C84.6449 22.2193 85.9255 20.1698 88.6509 20.1698C91.3816 20.1698 92.624 22.2275 92.624 24.6753C92.624 27.1189 91.3552 29.1813 88.6515 29.1813L88.6509 29.1807ZM88.6174 32.8444C93.6 32.8444 97.2636 29.6178 97.2636 24.6753C97.2636 19.6945 93.7329 16.4726 88.685 16.4726C83.6807 16.4726 80.0388 19.7198 80.0388 24.6753C80.0388 29.6972 83.5425 32.8444 88.6174 32.8444ZM66.1677 28.5501C65.3928 28.545 64.618 28.5229 63.8441 28.4836L63.6235 28.4742V15.3102L63.8352 15.2925C64.5682 15.2308 65.2965 15.2255 66.0318 15.2255C70.2537 15.2255 72.9633 17.5391 72.9633 21.7216C72.9633 25.86 70.4808 28.5501 66.1677 28.5501ZM58.9839 11.5271V32.3085C61.2952 32.6038 63.5605 32.7115 65.8959 32.7115C72.9533 32.7115 78.0793 28.7913 78.0793 21.6557C78.0793 14.4378 72.7279 11.0318 65.7936 11.0318C63.4988 11.0318 61.2457 11.1588 58.9839 11.5271Z" fill="#222222"/>
<mask id="mask0" mask-type="alpha" maskUnits="userSpaceOnUse" x="0" y="0" width="49" height="45">
<path d="M48.3448 22.3409C48.3448 36.9191 35.0255 45 21.3814 45H0L0.00941208 43.1764C3.38602 43.1899 5.20373 41.2116 5.21962 34.9896V3.41217e-08H21.7056C35.3514 -0.000588224 48.3448 7.60501 48.3448 22.3409Z" fill="white"/>
</mask>
<g mask="url(#mask0)">
<path fill-rule="evenodd" clip-rule="evenodd" d="M48.3448 22.3409C48.3448 36.9191 35.0255 45 21.3814 45H0L0.00941208 43.1764C3.38602 43.1899 5.20373 41.2116 5.21962 34.9896V3.41217e-08H21.7056C35.3514 -0.000588224 48.3448 7.60501 48.3448 22.3409Z" fill="url(#paint0_linear)"/>
</g>
<path fill-rule="evenodd" clip-rule="evenodd" d="M25.4188 13.9974C24.2111 13.9974 23.2299 14.1463 22.3616 14.4433V7.7166C21.4181 7.53071 20.4745 7.49365 19.5304 7.49365C18.6244 7.49365 17.6809 7.53071 16.7373 7.71719V31.0205C18.8139 32.0981 21.6822 32.7299 24.6641 32.7299C31.1567 32.7299 35.2704 29.1245 35.2704 23.1413C35.2704 17.157 31.0432 13.998 25.4188 13.998" fill="#FEFEFE"/>
<defs>
<linearGradient id="paint0_linear" x1="0" y1="45" x2="44.8846" y2="-3.22085" gradientUnits="userSpaceOnUse">
<stop stop-color="#F03928"/>
<stop offset="1" stop-color="#FFDE00"/>
</linearGradient>
</defs>
</svg>
